HIERARCHY
ROOT COM
{
  OFFSET -10.5682 89.9488 26.191
  CHANNELS 6 Xposition Yposition Zposition Zrotation Xrotation Yrotation
  JOINT Spine
  {
    OFFSET 0 10.0313 -3.64775
    CHANNELS 3 Zrotation Xrotation Yrotation
    JOINT Spine1
    {
      OFFSET 0 14.268 -0.0123585
      CHANNELS 3 Zrotation Xrotation Yrotation
      JOINT Spine2
      {
        OFFSET 0 15.5534 -0.0118018
        CHANNELS 3 Zrotation Xrotation Yrotation
        JOINT Neck
        {
          OFFSET 0 15.3437 -0.00507736
          CHANNELS 3 Zrotation Xrotation Yrotation
          JOINT Head
          {
            OFFSET 0 6.5943 0
            CHANNELS 3 Zrotation Xrotation Yrotation
            End Site
            {
              OFFSET 0 0 0
            }
          }
          JOINT Leftcollar
          {
            OFFSET 4.25429 -1.5481 1.99067
            CHANNELS 3 Zrotation Xrotation Yrotation
            JOINT LeftArm
            {
              OFFSET 16.8259 0 0
              CHANNELS 3 Zrotation Xrotation Yrotation
              JOINT LeftForeArm
              {
                OFFSET 0 -28.058 0
                CHANNELS 3 Zrotation Xrotation Yrotation
                JOINT LeftHand
                {
                  OFFSET 0 -24.7253 0
                  CHANNELS 3 Zrotation Xrotation Yrotation
                  End Site
                  {
                    OFFSET -2.98615 -9.94619 -0.575321
                  }
                }
              }
            }
          }
          JOINT RightCollar
          {
            OFFSET -4.25428 -1.54809 1.99069
            CHANNELS 3 Zrotation Xrotation Yrotation
            JOINT RightArm
            {
              OFFSET -16.8259 0 0
              CHANNELS 3 Zrotation Xrotation Yrotation
              JOINT RightForeArm
              {
                OFFSET 0 -28.058 0
                CHANNELS 3 Zrotation Xrotation Yrotation
                JOINT RightHand
                {
                  OFFSET 0 -24.7253 0
                  CHANNELS 3 Zrotation Xrotation Yrotation
                  End Site
                  {
                    OFFSET 2.98615 -9.94618 -0.575319
                  }
                }
              }
            }
          }
        }
      }
    }
  }
  JOINT LeftUpLeg
  {
    OFFSET 9.94275 0 0
    CHANNELS 3 Zrotation Xrotation Yrotation
    JOINT LeftLeg
    {
      OFFSET 0 -45.973 0
      CHANNELS 3 Zrotation Xrotation Yrotation
      JOINT LeftFoot
      {
        OFFSET 0 -43.1634 0
        CHANNELS 3 Zrotation Xrotation Yrotation
        JOINT LeftToe
        {
          OFFSET 0 0 15.6286
          CHANNELS 3 Zrotation Xrotation Yrotation
          End Site
          {
            OFFSET 0 0 0
          }
        }
      }
    }
  }
  JOINT RightUpLeg
  {
    OFFSET -9.94275 0 0
    CHANNELS 3 Zrotation Xrotation Yrotation
    JOINT RightLeg
    {
      OFFSET 0 -45.973 0
      CHANNELS 3 Zrotation Xrotation Yrotation
      JOINT RightFoot
      {
        OFFSET 0 -43.1634 0
        CHANNELS 3 Zrotation Xrotation Yrotation
        JOINT RightToe
        {
          OFFSET 0 0 15.6286
          CHANNELS 3 Zrotation Xrotation Yrotation
          End Site
          {
            OFFSET 0 0 0
          }
        }
      }
    }
  }
}
MOTION
Frames:	11
Frame Time:	0.0333333
-4.58489 90.4161 1.48638 0.0444595 7.98205 35.8903 -9.73359 -5.99399 3.19804e-015 -3.44397e-016 7.95139e-016 23.4188 1.59028e-015 9.93923e-016 -0 -1.19271e-015 9.93923e-016 3.18055e-015 -1.19271e-015 1.59028e-015 -0 -1.19271e-015 1.59028e-015 -0 21.1711 27.1617 -14.2346 -3.18055e-015 -7.32635 -0 9.54166e-015 -5.84258e-031 90 -1.19271e-015 1.59028e-015 -0 -36.3911 -16.472 -3.11674 1.58357e-015 -45.1206 -2.25374e-015 -1.59028e-014 -9.73764e-031 -90 -13.1602 -18.3443 38.7762 1.78723e-015 3.54352 -3.18665e-015 -6.59833e-007 24.7635 -26.4404 -2.64834e-031 4.77083e-015 3.18055e-015 -9.35896 11.6151 -39.4039 -4.39933e-015 28.0481 9.00953e-016 -2.44938e-007 14.9687 20.8684 1.59028e-015 6.36111e-015 -0 
-2.15634 91.0079 4.33944 0.755391 7.19113 36.9755 -9.99089 -5.23968 -6.3878e-015 1.82345e-015 7.95139e-016 21.3877 7.95139e-016 0 -0 -0 -1.78906e-015 -0 3.97569e-016 -1.59028e-015 3.18055e-015 3.97569e-016 -1.59028e-015 3.18055e-015 19.7565 26.4715 -15.8575 -0 -7.29912 -0 -0 0 90 3.97569e-016 -1.59028e-015 3.18055e-015 -33.7186 -15.0112 0.899156 4.74995e-015 -44.6214 2.23428e-015 3.18055e-015 1.94753e-031 -90 -13.2088 -15.0989 40.2659 1.19496e-015 4.73679 4.78718e-015 5.29175e-008 23.0868 -29.0015 1.03368e-014 -7.95139e-016 3.18055e-015 -12.2764 9.11942 -34.0889 2.21604e-015 38.2021 -1.01184e-015 -2.78424e-007 21.536 16.4679 -1.59028e-015 0 7.95139e-016 
0.018755 91.5401 6.8771 0.721891 5.95501 37.9383 -9.24203 -4.22642 -0 5.75807e-016 -1.59028e-015 19.9043 7.95139e-016 -5.96354e-016 -9.54166e-015 -1.19271e-015 0 -3.18055e-015 0 0 -3.18055e-015 0 0 -3.18055e-015 18.6472 24.5017 -19.5451 -3.65459e-015 -8.47704 -3.21569e-015 -3.18055e-015 1.94753e-031 90 0 0 -3.18055e-015 -31.4038 -12.9085 4.08274 -9.3651e-015 -44.1937 -8.872e-015 3.18055e-015 1.94753e-031 -90 -12.4959 -11.8154 43.2156 -1.45408e-015 4.89526 -1.5961e-015 -1.10567e-007 21.8421 -32.8405 5.56597e-015 3.97569e-015 -3.18055e-015 -13.7922 4.80036 -28.2868 -1.22406e-015 48.0731 2.38001e-015 5.17805e-008 28.588 12.2744 -1.59028e-015 -1.59028e-015 -0 
2.12876 91.8971 9.09787 0.662204 5.05505 38.7729 -8.38474 -3.43576 3.18628e-015 -0 0 18.6988 3.97569e-016 -5.96354e-016 -0 -3.97569e-016 1.19271e-015 3.18055e-015 1.59028e-015 0 3.18055e-015 1.59028e-015 0 3.18055e-015 17.9871 21.5759 -24.4091 3.41454e-015 -10.8237 9.71449e-015 -1.59028e-015 9.73764e-032 90 1.59028e-015 0 3.18055e-015 -29.6148 -10.4684 7.41483 3.63579e-015 -42.8747 -8.68004e-015 -6.36111e-015 -3.89506e-031 -90 -12.3769 -8.78607 43.3315 1.24115e-015 4.18547 4.78359e-015 1.62422e-007 20.4816 -34.0106 3.97569e-015 -1.59028e-015 -9.54166e-015 -14.8701 0.193205 -24.0993 -2.74994e-015 55.9401 2.83948e-015 3.26443e-007 26.1427 8.35741 -3.18055e-015 1.59028e-015 -3.97569e-016 
4.21752 92.1882 11.2397 0.457603 3.90351 40.3973 -7.26619 -2.46239 -3.18349e-015 -1.21212e-016 3.97569e-016 16.9555 1.98785e-015 1.98785e-015 -0 1.59028e-015 1.98785e-015 3.18055e-015 7.95139e-016 2.38542e-015 -3.18055e-015 7.95139e-016 2.38542e-015 -3.18055e-015 17.8763 17.8078 -28.6779 2.38195e-015 -13.9775 3.2776e-015 -0 0 90 7.95139e-016 2.38542e-015 -3.18055e-015 -27.8919 -7.75134 10.4287 4.0447e-015 -40.832 -8.40716e-015 9.54166e-015 5.84258e-031 -90 -12.023 -5.74318 41.5726 -3.18055e-015 3.65917 -0 -5.39013e-007 18.7383 -33.791 -1.59028e-015 1.98785e-015 -0 -15.309 -3.80738 -21.2648 4.37852e-015 60.2784 -6.41518e-015 5.71479e-008 22.3013 5.13124 -3.18055e-015 -3.18055e-015 7.95139e-016 
6.21425 92.364 13.2294 0.0979421 2.84093 42.3603 -6.12132 -1.50051 -0 -3.57639e-016 -1.98785e-016 15.3895 -7.95139e-016 3.97569e-016 -3.18055e-015 1.10348e-032 -1.98785e-016 3.18055e-015 3.97569e-016 5.96354e-016 -3.18055e-015 3.97569e-016 5.96354e-016 -3.18055e-015 18.2047 13.0346 -31.273 2.15034e-015 -17.9476 -3.34324e-015 -1.39149e-015 8.52044e-032 90 3.97569e-016 5.96354e-016 -3.18055e-015 -26.4729 -4.21968 13.0082 6.36111e-015 -38.8893 -0 -3.81667e-014 -2.33703e-030 -90 -11.2947 -3.23862 40.3656 -5.67263e-015 3.83699 1.59385e-015 6.53112e-007 17.1618 -34.3195 -6.62086e-032 -1.19271e-015 -3.18055e-015 -15.1094 -7.88833 -18.4839 -1.59028e-015 61.9067 -0 5.00629e-008 19.491 2.00277 6.36111e-015 0 1.59028e-015 
8.15681 92.4211 15.1554 -0.230579 2.0983 44.4895 -5.23097 -0.719712 -0 -1.33533e-015 -3.97569e-016 13.6951 -3.31043e-032 -5.96354e-016 -3.18055e-015 -5.96354e-016 -7.95139e-016 -6.36111e-015 1.98785e-016 5.96354e-016 -6.36111e-015 1.98785e-016 5.96354e-016 -6.36111e-015 18.7745 7.97429 -32.4087 3.18055e-015 -22.3875 -0 -1.78906e-015 1.09548e-031 90 1.98785e-016 5.96354e-016 -6.36111e-015 -24.9658 -0.751785 15.1918 -4.63262e-015 -36.0648 -7.86923e-015 -1.27222e-014 -7.79011e-031 -90 -10.4994 -1.23455 39.7164 -5.08679e-015 4.54395 3.98823e-015 8.62838e-007 15.5676 -35.6227 3.57812e-015 1.19271e-015 6.36111e-015 -14.8496 -11.9074 -15.8988 -5.78292e-015 61.1896 6.59986e-015 3.05045e-009 16.737 -0.894832 0 0 -0 
10.0729 92.4246 17.0157 -0.485282 1.39876 46.451 -4.40825 0.180999 -0 -1.33735e-015 -3.97569e-016 12.3845 -9.93923e-016 -2.08724e-015 9.54166e-015 -5.96354e-016 -4.96962e-016 -3.18055e-015 -1.98785e-016 -3.97569e-016 -3.18055e-015 -1.98785e-016 -3.97569e-016 -3.18055e-015 19.6325 2.8134 -32.8432 3.23706e-015 -27.3736 3.5816e-015 -5.96354e-015 3.65162e-031 90 -1.98785e-016 -3.97569e-016 -3.18055e-015 -23.4459 2.78172 16.9129 2.02306e-014 -32.5907 -3.77496e-015 -4.45278e-014 -2.72654e-030 -90 -9.55687 0.554272 38.501 -2.34057e-016 5.60393 2.39687e-015 5.02348e-007 13.9572 -36.3427 3.97569e-016 2.38542e-015 6.36111e-015 -14.3456 -15.489 -13.5631 0 58.1036 -0 8.18226e-009 14.1449 -2.49629 -0 0 6.36111e-015 
11.8933 92.3596 18.8446 -1.30661 1.13955 48.3974 -3.5207 0.397525 3.18063e-015 -8.412e-016 -8.94531e-016 10.8004 -4.41391e-032 3.97569e-016 6.36111e-015 -1.98785e-016 -1.19271e-015 -0 1.98785e-016 -5.96354e-016 6.36111e-015 1.98785e-016 -5.96354e-016 6.36111e-015 20.629 -1.9941 -32.05 -0 -32.6395 -0 3.97569e-015 -2.43441e-031 90 1.98785e-016 -5.96354e-016 6.36111e-015 -21.8889 5.83218 18.4523 2.02395e-015 -28.6107 -9.05735e-015 -3.18055e-014 -1.94753e-030 -90 -8.56063 1.47703 37.0782 -7.95139e-016 6.6044 -0 3.46236e-007 11.7292 -36.3584 -1.19271e-015 -2.98177e-015 -3.18055e-015 -13.607 -19.0533 -12.5379 3.18055e-015 53.0048 -0 2.66333e-008 12.3741 -4.26625 3.18055e-015 0 6.36111e-015 
13.7721 92.2809 20.7049 -1.92777 1.06391 50.1602 -2.93315 0.639205 -3.18075e-015 3.17032e-016 -6.95746e-016 9.42773 3.03456e-032 -5.46658e-016 3.18055e-015 1.98785e-016 -2.48481e-016 -3.18055e-015 2.48282e-032 4.47266e-016 -3.18055e-015 2.48282e-032 4.47266e-016 -3.18055e-015 21.802 -6.59236 -31.1512 5.01655e-017 -37.4439 4.00599e-015 1.27222e-014 -7.79011e-031 90 2.48282e-032 4.47266e-016 -3.18055e-015 -20.5214 8.88476 20.3329 5.87426e-015 -24.7605 -8.75639e-015 2.22639e-014 1.36327e-030 -90 -7.72381 2.33452 34.3726 -3.68699e-015 7.79643 8.02557e-016 5.23172e-007 10.1977 -35.3519 -1.98785e-016 8.74653e-015 9.54166e-015 -12.9923 -21.9578 -12.7254 -4.61159e-015 46.399 -4.61196e-015 2.03502e-008 11.1175 -4.93823 -1.59028e-015 -3.18055e-015 -0 
15.7516 92.1459 22.7364 -2.57439 0.92714 51.6277 -2.26862 0.640973 -9.54226e-015 -5.70899e-016 7.95139e-016 8.48905 5.96354e-016 9.44227e-016 -3.18055e-015 -1.49089e-016 1.2921e-015 -0 3.47873e-016 -2.98177e-016 3.18055e-015 3.47873e-016 -2.98177e-016 3.18055e-015 23.3045 -10.8724 -30.5894 6.36111e-015 -41.7003 -0 -0 0 90 3.47873e-016 -2.98177e-016 3.18055e-015 -19.1624 11.9236 21.9458 9.67898e-015 -20.9434 -8.51386e-015 -1.59028e-014 -9.73764e-031 -90 -6.79042 3.3447 32.0635 -5.53655e-015 8.77332 2.41366e-015 2.21448e-007 8.62617 -34.4265 3.37934e-015 8.69683e-015 -0 -12.0168 -23.898 -14.719 -9.053e-016 38.119 4.04275e-015 -4.87507e-008 11.5014 -3.68439 -4.77083e-015 -3.18055e-015 6.36111e-015 
